<svg width="227" height="34" viewBox="0 0 227 34" fill="none" xmlns="http://www.w3.org/2000/svg">
<g clip-path="url(#clip0_107_360)">
<path d="M44.7871 11.617V10.9981C44.7871 10.3405 44.367 10.3212 43.6495 10.3212V9.60559H47.9867V11.617H51.2638V12.7709H41.0898V11.617H44.7871ZM46.2285 13.4349C49.0855 13.4349 50.7661 14.8081 50.7661 17.1418C50.7661 19.4755 49.0273 21.0292 46.2285 21.0292C43.4297 21.0292 41.5875 19.5142 41.5875 17.1418C41.5875 14.7694 43.3457 13.4349 46.2285 13.4349ZM42.5313 22.2283H47.0688V26.4767H55.9629V27.4759H44.4898C43.9274 27.4759 43.6689 27.1987 43.6689 26.5411V23.769C43.6689 23.0341 43.4103 22.9503 42.5313 22.9503V22.2347V22.2283ZM46.2285 19.8752C47.211 19.8752 47.7669 18.876 47.7669 17.1418C47.7669 15.4076 47.2498 14.5889 46.2285 14.5889C45.2072 14.5889 44.6901 15.4463 44.6901 17.1418C44.6901 18.8373 45.2525 19.8752 46.2285 19.8752ZM52.466 22.2283V11.5009C52.466 10.766 52.2075 10.6822 51.3284 10.6822V9.96661H55.6656V15.9685H57.7663V16.9484H55.6656V22.989H53.2481C52.6664 22.989 52.466 22.8085 52.466 22.2283Z" fill="#111010"/>
<path d="M69.258 26.7152V22.5893H59.7628V21.4353H64.4813L64.5007 18.8824H58.5605V17.7285H68.7991C69.0771 16.51 69.2192 15.1369 69.2192 13.6219V11.6492H59.821V10.4952H71.5979C72.2766 10.4952 72.6192 10.8756 72.6192 11.6105C72.6192 13.9249 71.9211 16.0781 70.6607 17.7349H73.9572V18.8889H68.017L67.9976 21.4418H72.658V27.4823H70.0401C69.4778 27.4823 69.258 27.2825 69.258 26.7216V26.7152Z" fill="#111010"/>
<path d="M75.1602 24.9617H81.1197V19.6367H77.4612C76.8407 19.6367 76.5046 19.2757 76.5046 18.6181V12.0167C76.5046 11.2818 76.2461 11.1979 75.367 11.1979V10.4824H88.5789C89.0378 10.4824 89.2188 10.7015 89.2188 11.1979V19.6303H84.6425V24.9552H90.5632V26.1092H75.1666V24.9552L75.1602 24.9617ZM86.0128 11.6363H79.6977V18.4763H86.0128V11.6363Z" fill="#111010"/>
<path d="M92.4892 24.8199V12.0167C92.4892 11.2818 92.2306 11.198 91.3516 11.198V10.4824H95.5918V16.6454H97.8929V11.7782C97.8929 11.1206 97.5955 11.1013 96.891 11.1013V10.3857H100.892V25.8191H93.4523C92.8318 25.8191 92.4956 25.4581 92.4956 24.8199H92.4892ZM97.8864 17.7994H95.5853V24.6587H97.8864V17.7994ZM101.745 10.0053H106.005V17.5028H108.067V18.6568H106.005V27.5275H103.568C103.109 27.5275 102.889 27.3083 102.889 26.8506V11.3785C102.889 10.7402 102.527 10.7016 101.752 10.7016V10.0053H101.745Z" fill="#111010"/>
<path d="M113.724 10.1858C116.846 10.1858 118.404 11.559 118.404 14.2924C118.404 17.0258 116.846 18.4183 113.724 18.4183C110.602 18.4183 108.928 17.0194 108.928 14.2924C108.928 11.5654 110.55 10.1858 113.724 10.1858ZM111.862 26.5154V24.4395C111.862 23.6595 111.52 23.6401 110.725 23.6401V22.9246H120.259V20.5328H111.462V19.5336H123.659V23.898H115.262V26.4509H123.956V27.4502H112.838C112.218 27.4502 111.856 27.0891 111.856 26.5154H111.862ZM113.724 17.2643C114.907 17.2643 115.424 16.3489 115.424 14.2924C115.424 12.2359 114.907 11.3398 113.724 11.3398C112.541 11.3398 112.024 12.2166 112.024 14.2924C112.024 16.3682 112.541 17.2643 113.724 17.2643ZM119.302 9.96665H123.639V18.6181H121.222C120.64 18.6181 120.44 18.4183 120.44 17.8574V11.4945C120.44 10.7596 120.181 10.6758 119.302 10.6758V9.96021V9.96665Z" fill="#111010"/>
<path d="M131.634 12.2745V11.4751H126.437V10.4759H134.096C134.594 10.4759 134.756 10.8176 134.756 11.372L134.736 12.0102H137.632C137.632 11.5138 137.632 11.1915 137.613 11.0303C137.554 10.6886 137.192 10.5919 136.494 10.5919V9.87634H140.831V18.5665H138.414C137.832 18.5665 137.632 18.3667 137.632 17.8058V16.2715H134.032V15.2916H137.632V12.9772H134.672C134.271 16.149 131.175 18.2635 126.198 18.6826L125.881 18.025C129.636 17.2901 131.64 15.2916 131.64 12.2616L131.634 12.2745ZM127.956 22.8858H137.432V20.5328H128.634V19.5335H140.831V23.8593H132.435V26.4509H141.129V27.4501H130.011C129.391 27.4501 129.029 27.0891 129.029 26.5153V24.4201C129.029 24.1429 128.99 23.9431 128.932 23.8206C128.77 23.6014 128.531 23.6207 127.949 23.6207V22.8858H127.956Z" fill="#111010"/>
<path d="M144.587 22.6473C145.466 20.752 145.55 19.0952 145.55 15.9685V11.7395H143.133V10.5855H150.728V11.7395H148.569V15.6655C148.569 17.2385 148.607 18.515 148.711 19.4755C148.892 21.4095 149.648 23.4209 151.548 24.8392L150.747 25.7546C149.17 24.8585 147.968 23.5241 147.108 21.7254C146.449 23.4596 144.787 25.3549 143.268 26.135L142.486 25.1809C143.443 24.446 144.148 23.6079 144.587 22.6473ZM149.487 16.8259H151.988V11.5009C151.988 10.6822 151.891 10.6048 151.128 10.6048V9.88926H154.69V27.4759H152.531C152.169 27.4759 151.994 27.2954 151.994 26.9602V18.0895H149.493V16.8324L149.487 16.8259ZM154.987 9.88281H158.542V27.4695H156.403C156.021 27.4695 155.84 27.289 155.84 26.9279V11.4945C155.84 10.6951 155.763 10.5984 154.981 10.5984V9.88281H154.987Z" fill="#111010"/>
<path d="M163.786 13.1126V11.978C163.786 11.3591 163.424 11.3011 162.648 11.3011V10.5855H167.089V12.281C167.089 15.3883 168.31 17.5866 170.948 19.179L170.288 20.0751C168.252 19.295 166.649 17.9799 165.492 16.1684C164.671 18.083 162.874 19.6947 160.554 20.6746L159.914 19.7592C162.454 18.1862 163.792 15.8911 163.792 13.1191L163.786 13.1126ZM161.685 21.4289H166.223V26.4767H175.117V27.4759H163.644C163.081 27.4759 162.823 27.1987 162.823 26.5411V22.9696C162.823 22.2347 162.564 22.1509 161.685 22.1509V21.4353V21.4289ZM170.482 9.96661H174.819V15.427H176.92V16.4262H174.819V22.5893H172.402C171.84 22.5893 171.62 22.3894 171.62 21.8286V11.5009C171.62 10.766 171.361 10.6822 170.482 10.6822V9.96661Z" fill="#111010"/>
<path d="M189.214 18.3602V14.9306H187.152C187.01 17.5028 185.471 18.7986 182.491 18.7986C179.292 18.7986 177.695 17.361 177.695 14.4922C177.695 11.6234 179.292 10.1858 182.491 10.1858C185.368 10.1858 186.887 11.3591 187.132 13.7766H189.214V11.4816C189.214 10.7015 188.871 10.6629 188.076 10.6629V9.94727H192.413V19.1209H189.996C189.433 19.1209 189.214 18.9211 189.214 18.3602ZM178.555 20.1524H182.892V22.6215H189.207V21.4676C189.207 20.8487 188.845 20.7906 188.07 20.7906V20.0751H192.407V27.4759H180.649C180.029 27.4759 179.693 27.1149 179.693 26.4767V21.5514C179.693 20.8745 179.253 20.8745 178.555 20.8745V20.1589V20.1524ZM182.498 17.664C182.996 17.664 183.377 17.5222 183.635 17.2256C184.133 16.6647 184.198 15.8911 184.198 14.7501L184.217 14.0732C184.217 12.4164 183.92 11.3398 182.498 11.3398C181.076 11.3398 180.798 12.3777 180.798 13.97V14.8274C180.798 16.5616 181.056 17.6575 182.498 17.6575V17.664ZM189.214 23.7819H182.899V26.3155H189.214V23.7819Z" fill="#111010"/>
<path d="M198.326 11.3204V10.9014C198.326 10.2438 197.906 10.2245 197.189 10.2245V9.50891H201.526V11.3204H204.803V12.4744H194.629V11.3204H198.326ZM206.386 18.9598L206.406 18.3409H203.665C202.948 19.2177 201.584 19.6754 199.768 19.6754C196.872 19.6754 195.133 18.457 195.133 16.4069C195.133 14.3568 196.872 13.1191 199.768 13.1191C201.267 13.1191 202.405 13.4156 203.187 14.0152H206.406V9.96663H209.605V19.7979H207.188C206.548 19.7979 206.386 19.5013 206.386 18.9598ZM195.728 20.8294H200.065V23.0406H206.38V22.1445C206.38 21.5256 206.018 21.4676 205.242 21.4676V20.752H209.58V27.4695H197.822C197.201 27.4695 196.865 27.1085 196.865 26.4702V22.2218C196.865 21.603 196.503 21.5449 195.728 21.5449V20.8294ZM199.768 18.6761C200.905 18.6761 201.306 18.0766 201.306 16.4005C201.306 14.7243 200.905 14.0861 199.768 14.0861C198.63 14.0861 198.229 14.7436 198.229 16.4778C198.229 18.0959 198.63 18.6697 199.768 18.6697V18.6761ZM206.386 24.201H200.071V26.3155H206.386V24.201ZM204.305 16.4069C204.305 16.5874 204.286 16.8453 204.228 17.187H206.406V15.1756H204.085C204.228 15.5946 204.305 16.0137 204.305 16.4133V16.4069Z" fill="#111010"/>
<path d="M212.127 23.9431H215.863V21.4483C213.943 20.9905 212.722 19.4756 212.722 17.5415C212.722 15.2659 214.499 13.6348 217.363 13.6348C220.226 13.6348 221.9 15.1305 221.9 17.5415C221.9 19.4369 220.84 20.8745 219.063 21.4096V23.9431H223.102V25.0971H212.127V23.9431ZM215.941 11.8169V11.2367C215.941 10.5017 215.682 10.4179 214.803 10.4179V9.70233H219.302V11.8169H222.398V12.9708H212.224V11.8169H215.941ZM217.363 20.4748C218.3 20.4748 218.901 19.3208 218.901 17.5415C218.901 15.7622 218.319 14.7888 217.363 14.7888C216.406 14.7888 215.824 15.8074 215.824 17.5415C215.824 19.2757 216.425 20.4748 217.363 20.4748ZM222.74 10.0053H227V27.534H224.563C224.104 27.534 223.865 27.3148 223.865 26.8571V11.3849C223.865 10.7467 223.503 10.708 222.747 10.708V10.0118L222.74 10.0053Z" fill="#111010"/>
<path d="M7.09644 30.0546C7.09644 27.8691 5.11208 26.1479 2.84331 26.5798C1.46007 26.8441 0.341839 27.953 0.0703619 29.3261C-0.3821 31.5953 1.35018 33.5938 3.54785 33.5938C5.50637 33.5938 7.09644 32.0079 7.09644 30.0546Z" fill="#41AD49"/>
<path d="M7.09718 21.2033C7.09718 19.2499 5.5071 17.664 3.54859 17.664C1.59008 17.664 0 19.2499 0 21.2033C0 23.1566 1.59008 24.7425 3.54859 24.7425C5.5071 24.7425 7.09718 23.1566 7.09718 21.2033Z" fill="#41AD49"/>
<path d="M7.09718 12.3519C7.09718 10.3921 5.5071 8.81268 3.54859 8.81268C1.59008 8.81268 0 10.3921 0 12.3519C0 14.3117 1.59008 15.8912 3.54859 15.8912C5.5071 15.8912 7.09718 14.3053 7.09718 12.3519Z" fill="#41AD49"/>
<path d="M15.9702 21.2033C15.9702 19.2499 14.3802 17.664 12.4216 17.664C10.4631 17.664 8.87305 19.2499 8.87305 21.2033C8.87305 23.1566 10.4631 24.7425 12.4216 24.7425C14.3802 24.7425 15.9702 23.1566 15.9702 21.2033Z" fill="#41AD49"/>
<path d="M15.9702 12.3519C15.9702 10.3921 14.3802 8.81268 12.4216 8.81268C10.4631 8.81268 8.87305 10.3986 8.87305 12.3519C8.87305 14.3053 10.4631 15.8912 12.4216 15.8912C14.3802 15.8912 15.9702 14.3053 15.9702 12.3519Z" fill="#41AD49"/>
<path d="M15.9702 3.5457C15.9702 1.59234 14.3802 0 12.4216 0C10.4631 0 8.87305 1.58589 8.87305 3.5457C8.87305 5.5055 10.4631 7.08494 12.4216 7.08494C14.3802 7.08494 15.9702 5.49905 15.9702 3.5457Z" fill="#FDB913"/>
<path d="M24.8472 21.2033C24.8472 19.2499 23.2571 17.664 21.2986 17.664C19.3401 17.664 17.75 19.2499 17.75 21.2033C17.75 23.1566 19.3401 24.7425 21.2986 24.7425C23.2571 24.7425 24.8472 23.1566 24.8472 21.2033Z" fill="#41AD49"/>
<path d="M24.8472 12.3519C24.8472 10.3921 23.2571 8.81268 21.2986 8.81268C19.3401 8.81268 17.75 10.3986 17.75 12.3519C17.75 14.3053 19.3401 15.8912 21.2986 15.8912C23.2571 15.8912 24.8472 14.3053 24.8472 12.3519Z" fill="#41AD49"/>
<path d="M24.8472 3.5457C24.8472 1.59234 23.2571 0 21.2986 0C19.3401 0 17.75 1.58589 17.75 3.5457C17.75 5.5055 19.3401 7.08494 21.2986 7.08494C23.2571 7.08494 24.8472 5.49905 24.8472 3.5457Z" fill="#FDB913"/>
<path d="M33.7202 30.0546C33.7202 28.0948 32.1302 26.5154 30.1716 26.5154C28.2131 26.5154 26.623 28.1013 26.623 30.0546C26.623 32.008 28.2131 33.5939 30.1716 33.5939C32.1302 33.5939 33.7202 32.008 33.7202 30.0546Z" fill="#41AD49"/>
<path d="M33.7202 21.2033C33.7202 19.2499 32.1302 17.664 30.1716 17.664C28.2131 17.664 26.623 19.2499 26.623 21.2033C26.623 23.1566 28.2131 24.7425 30.1716 24.7425C32.1302 24.7425 33.7202 23.1566 33.7202 21.2033Z" fill="#41AD49"/>
<path d="M33.7202 12.3519C33.7202 10.3921 32.1302 8.81268 30.1716 8.81268C28.2131 8.81268 26.623 10.3986 26.623 12.3519C26.623 14.3053 28.2131 15.8912 30.1716 15.8912C32.1302 15.8912 33.7202 14.3053 33.7202 12.3519Z" fill="#41AD49"/>
<path d="M28.0312 30.8153C28.0312 30.8153 28.0313 31.1828 28.4772 31.1828H28.9491V31.7436C28.9491 31.7436 28.9491 32.1885 29.3175 32.1885C29.3175 32.1885 29.6795 32.1885 29.6795 31.7436V31.1828H30.565V31.7436C30.565 31.7436 30.565 32.1885 30.9335 32.1885C30.9335 32.1885 31.2954 32.1885 31.2954 31.7436V31.1828H31.8642C31.8642 31.1828 32.3102 31.1828 32.3102 30.8153C32.3102 30.8153 32.3102 30.4543 31.8642 30.4543H31.2954V29.5711H31.8642C31.8642 29.5711 32.3102 29.5711 32.3102 29.2101C32.3102 29.2101 32.3102 28.8426 31.8642 28.8426H31.2954V28.3656C31.2954 28.3656 31.2954 27.9272 30.9335 27.9272C30.9335 27.9272 30.565 27.9272 30.565 28.3656V28.8426H29.6795V28.3656C29.6795 28.3656 29.6795 27.9272 29.3175 27.9272C29.3175 27.9272 28.9491 27.9272 28.9491 28.3656V28.8426H28.4772C28.4772 28.8426 28.0312 28.8426 28.0312 29.2101C28.0312 29.2101 28.0313 29.5711 28.4772 29.5711H28.9491V30.4543H28.4772C28.4772 30.4543 28.0312 30.4543 28.0312 30.8153ZM29.6795 30.4543V29.5711H30.565V30.4543H29.6795Z" fill="white"/>
<path d="M5.40333 28.9845C5.40333 28.9845 5.22235 28.6686 4.83452 28.8878L3.91667 29.4228V28.3591C3.91667 28.3591 3.91667 27.9143 3.54824 27.9143C3.54824 27.9143 3.18627 27.9143 3.18627 28.3591V29.4228L2.26842 28.8878C2.26842 28.8878 1.88706 28.6686 1.69961 28.9845C1.69961 28.9845 1.51863 29.3004 1.89999 29.526L2.8243 30.0546L1.89999 30.5832C1.89999 30.5832 1.51216 30.8024 1.69961 31.1183C1.69961 31.1183 1.8806 31.4342 2.26842 31.2086L3.18627 30.6799V31.7372C3.18627 31.7372 3.18627 32.182 3.54824 32.182C3.54824 32.182 3.91667 32.182 3.91667 31.7372V30.6799L4.83452 31.2086C4.83452 31.2086 5.21588 31.4342 5.40333 31.1183C5.40333 31.1183 5.59078 30.8024 5.20296 30.5832L4.27864 30.0546L5.20296 29.526C5.20296 29.526 5.58432 29.3068 5.40333 28.9845Z" fill="white"/>
<path d="M10.938 36.8328V30.2873H11.9096V31.31H11.9949C12.1312 30.9606 12.3514 30.6893 12.6554 30.4961C12.9593 30.3001 13.3244 30.2021 13.7505 30.2021C14.1824 30.2021 14.5417 30.3001 14.8287 30.4961C15.1184 30.6893 15.3443 30.9606 15.5062 31.31H15.5744C15.742 30.972 15.9934 30.7035 16.3287 30.5046C16.6639 30.3029 17.0659 30.2021 17.5346 30.2021C18.1199 30.2021 18.5985 30.3853 18.9707 30.7518C19.3429 31.1154 19.5289 31.6822 19.5289 32.4521V36.8328H18.5233V32.4521C18.5233 31.9691 18.3912 31.624 18.127 31.4166C17.8627 31.2092 17.5517 31.1055 17.1937 31.1055C16.7335 31.1055 16.377 31.2447 16.1241 31.5231C15.8713 31.7987 15.7449 32.1481 15.7449 32.5714V36.8328H14.7221V32.3498C14.7221 31.9776 14.6014 31.6779 14.3599 31.4507C14.1184 31.2205 13.8074 31.1055 13.4267 31.1055C13.1653 31.1055 12.921 31.1751 12.6937 31.3143C12.4693 31.4535 12.2875 31.6467 12.1483 31.8938C12.0119 32.1382 11.9437 32.4208 11.9437 32.7419V36.8328H10.938ZM21.3677 39.2873V30.2873H22.3393V31.3271H22.4586C22.5325 31.2134 22.6348 31.0686 22.7654 30.8924C22.899 30.7134 23.0893 30.5544 23.3365 30.4152C23.5865 30.2731 23.9245 30.2021 24.3507 30.2021C24.9018 30.2021 25.3876 30.3399 25.8081 30.6154C26.2285 30.891 26.5566 31.2816 26.7924 31.7873C27.0282 32.293 27.1461 32.8896 27.1461 33.5771C27.1461 34.2703 27.0282 34.8711 26.7924 35.3796C26.5566 35.8853 26.2299 36.2774 25.8123 36.5558C25.3947 36.8313 24.9132 36.9691 24.3677 36.9691C23.9473 36.9691 23.6106 36.8995 23.3578 36.7603C23.1049 36.6183 22.9103 36.4578 22.774 36.2788C22.6376 36.097 22.5325 35.9464 22.4586 35.8271H22.3734V39.2873H21.3677ZM22.3564 33.56C22.3564 34.0544 22.4288 34.4904 22.5737 34.8683C22.7186 35.2433 22.9302 35.5373 23.2086 35.7504C23.487 35.9606 23.8279 36.0657 24.2314 36.0657C24.6518 36.0657 25.0027 35.9549 25.2839 35.7333C25.568 35.5089 25.7811 35.2078 25.9231 34.8299C26.068 34.4492 26.1404 34.0259 26.1404 33.56C26.1404 33.0998 26.0694 32.685 25.9274 32.3157C25.7882 31.9436 25.5765 31.6495 25.2924 31.4336C25.0112 31.2149 24.6575 31.1055 24.2314 31.1055C23.8223 31.1055 23.4785 31.2092 23.2001 31.4166C22.9217 31.6211 22.7115 31.908 22.5694 32.2774C22.4274 32.6438 22.3564 33.0714 22.3564 33.56ZM10.938 51.8328V45.2873H11.9437V51.8328H10.938ZM11.4494 44.1964C11.2534 44.1964 11.0843 44.1296 10.9423 43.9961C10.8031 43.8626 10.7335 43.7021 10.7335 43.5146C10.7335 43.3271 10.8031 43.1666 10.9423 43.033C11.0843 42.8995 11.2534 42.8328 11.4494 42.8328C11.6454 42.8328 11.813 42.8995 11.9522 43.033C12.0943 43.1666 12.1653 43.3271 12.1653 43.5146C12.1653 43.7021 12.0943 43.8626 11.9522 43.9961C11.813 44.1296 11.6454 44.1964 11.4494 44.1964ZM15.7118 51.9862C15.2971 51.9862 14.9206 51.908 14.5826 51.7518C14.2445 51.5927 13.976 51.364 13.7772 51.0657C13.5783 50.7646 13.4789 50.4009 13.4789 49.9748C13.4789 49.5998 13.5527 49.2958 13.7005 49.0629C13.8482 48.8271 14.0456 48.6424 14.2928 48.5089C14.54 48.3754 14.8127 48.2759 15.111 48.2106C15.4121 48.1424 15.7147 48.0884 16.0186 48.0487C16.4164 47.9975 16.7388 47.9592 16.986 47.9336C17.236 47.9052 17.4178 47.8583 17.5314 47.793C17.6479 47.7276 17.7061 47.614 17.7061 47.4521V47.418C17.7061 46.9975 17.5911 46.6708 17.361 46.4379C17.1337 46.2049 16.7885 46.0884 16.3255 46.0884C15.8453 46.0884 15.4689 46.1936 15.1962 46.4038C14.9235 46.614 14.7317 46.8384 14.6209 47.0771L13.6664 46.7362C13.8368 46.3384 14.0641 46.0288 14.3482 45.8072C14.6351 45.5828 14.9476 45.4265 15.2857 45.3384C15.6266 45.2475 15.9618 45.2021 16.2914 45.2021C16.5016 45.2021 16.7431 45.2276 17.0158 45.2788C17.2914 45.3271 17.557 45.4279 17.8127 45.5813C18.0712 45.7348 18.2857 45.9663 18.4561 46.2759C18.6266 46.5856 18.7118 47.0004 18.7118 47.5203V51.8328H17.7061V50.9464H17.655C17.5868 51.0884 17.4732 51.2404 17.3141 51.4024C17.155 51.5643 16.9434 51.7021 16.6792 51.8157C16.415 51.9294 16.0925 51.9862 15.7118 51.9862ZM15.8652 51.0828C16.263 51.0828 16.5982 51.0046 16.8709 50.8484C17.1465 50.6921 17.3539 50.4904 17.4931 50.2433C17.6351 49.9961 17.7061 49.7362 17.7061 49.4634V48.543C17.6635 48.5941 17.5698 48.641 17.4249 48.6836C17.2828 48.7234 17.1181 48.7589 16.9306 48.7901C16.7459 48.8186 16.5655 48.8441 16.3894 48.8669C16.2161 48.8867 16.0755 48.9038 15.9675 48.918C15.7061 48.9521 15.4618 49.0075 15.2346 49.0842C15.0101 49.158 14.8283 49.2703 14.6891 49.4208C14.5527 49.5686 14.4846 49.7703 14.4846 50.0259C14.4846 50.3754 14.6138 50.6396 14.8723 50.8186C15.1337 50.9947 15.4647 51.0828 15.8652 51.0828Z" fill="#7C8081"/>
</g>
<defs>
<clipPath id="clip0_107_360">
<rect width="227" height="34" fill="white"/>
</clipPath>
</defs>
</svg>
