<svg width="195" height="35" viewBox="0 0 195 35" fill="none" xmlns="http://www.w3.org/2000/svg">
<g clip-path="url(#clip0_107_292)">
<path d="M38.7004 9.90846V9.38058C38.7004 8.81972 38.3421 8.80322 37.7301 8.80322V8.19287H41.4294V9.90846H44.2246V10.8927H35.5469V9.90846H38.7004ZM39.9299 11.4591C42.3667 11.4591 43.8001 12.6303 43.8001 14.6208C43.8001 16.6113 42.3171 17.9365 39.9299 17.9365C37.5426 17.9365 35.9714 16.6443 35.9714 14.6208C35.9714 12.5973 37.471 11.4591 39.9299 11.4591ZM36.7763 18.9593H40.6466V22.5829H48.2327V23.4352H38.4468C37.9672 23.4352 37.7466 23.1987 37.7466 22.6379V20.2735C37.7466 19.6466 37.5261 19.5751 36.7763 19.5751V18.9648V18.9593ZM39.9299 16.9523C40.7679 16.9523 41.242 16.1 41.242 14.6208C41.242 13.1417 40.8009 12.4433 39.9299 12.4433C39.0588 12.4433 38.6177 13.1747 38.6177 14.6208C38.6177 16.067 39.0974 16.9523 39.9299 16.9523ZM45.2501 18.9593V9.80948C45.2501 9.18263 45.0296 9.11115 44.2798 9.11115V8.5008H47.9791V13.6201H49.7709V14.4559H47.9791V19.6081H45.9172C45.421 19.6081 45.2501 19.4542 45.2501 18.9593Z" fill="#525252"/>
<path d="M59.5735 22.7863V19.2672H51.4747V18.2829H55.4993L55.5158 16.1054H50.4492V15.1212H59.1821C59.4192 14.0819 59.5405 12.9107 59.5405 11.6185V9.93592H51.5243V8.95166H61.5693C62.1482 8.95166 62.4404 9.27608 62.4404 9.90293C62.4404 11.877 61.845 13.7135 60.7699 15.1267H63.5816V16.1109H58.515L58.4985 18.2884H62.4735V23.4407H60.2406C59.761 23.4407 59.5735 23.2702 59.5735 22.7918V22.7863Z" fill="#525252"/>
<path d="M64.6055 21.2904H69.6886V16.7485H66.5682C66.0389 16.7485 65.7522 16.4406 65.7522 15.8798V10.2491C65.7522 9.62226 65.5317 9.55078 64.7819 9.55078V8.94043H76.0508C76.4423 8.94043 76.5967 9.12738 76.5967 9.55078V16.743H72.6933V21.2849H77.7434V22.2692H64.611V21.2849L64.6055 21.2904ZM73.8621 9.92469H68.4757V15.7588H73.8621V9.92469Z" fill="#525252"/>
<path d="M79.3883 21.1696V10.2493C79.3883 9.62243 79.1678 9.55095 78.418 9.55095V8.94059H82.0346V14.1973H83.9973V10.0458C83.9973 9.48496 83.7437 9.46847 83.1428 9.46847V8.85811H86.5554V22.0219H80.2098C79.6805 22.0219 79.3938 21.714 79.3938 21.1696H79.3883ZM83.9918 15.1816H82.0291V21.0322H83.9918V15.1816ZM87.2832 8.53369H90.9164V14.9286H92.6751V15.9129H90.9164V23.4791H88.8379C88.4465 23.4791 88.259 23.2921 88.259 22.9017V9.70491C88.259 9.16054 87.9503 9.12755 87.2887 9.12755V8.53369H87.2832Z" fill="#525252"/>
<path d="M97.499 8.68757C100.162 8.68757 101.491 9.85879 101.491 12.1902C101.491 14.5217 100.162 15.7094 97.499 15.7094C94.8361 15.7094 93.4082 14.5162 93.4082 12.1902C93.4082 9.86429 94.792 8.68757 97.499 8.68757ZM95.9112 22.6157V20.8451C95.9112 20.1798 95.619 20.1633 94.9409 20.1633V19.5529H103.073V17.5129H95.5694V16.6606H105.973V20.3832H98.8111V22.5607H106.226V23.413H96.7437C96.2144 23.413 95.9057 23.1051 95.9057 22.6157H95.9112ZM97.499 14.7251C98.5079 14.7251 98.949 13.9443 98.949 12.1902C98.949 10.4361 98.5079 9.67183 97.499 9.67183C96.4901 9.67183 96.049 10.4197 96.049 12.1902C96.049 13.9608 96.4901 14.7251 97.499 14.7251ZM102.257 8.50062H105.956V15.8798H103.894C103.398 15.8798 103.227 15.7094 103.227 15.231V9.8038C103.227 9.17695 103.007 9.10547 102.257 9.10547V8.49512V8.50062Z" fill="#525252"/>
<path d="M112.774 10.4693V9.7875H108.341V8.9352H114.874C115.299 8.9352 115.437 9.22663 115.437 9.69952L115.42 10.2439H117.89C117.89 9.82049 117.89 9.54556 117.874 9.40809C117.824 9.11666 117.515 9.03418 116.92 9.03418V8.42383H120.619V15.836H118.557C118.061 15.836 117.89 15.6656 117.89 15.1872V13.8785H114.819V13.0427H117.89V11.0687H115.365C115.023 13.774 112.382 15.5776 108.137 15.935L107.867 15.3742C111.07 14.7473 112.779 13.0427 112.779 10.4583L112.774 10.4693ZM109.637 19.5202H117.719V17.5131H110.216V16.6608H120.619V20.3504H113.458V22.5609H120.873V23.4132H111.39C110.861 23.4132 110.552 23.1053 110.552 22.6159V20.8288C110.552 20.5924 110.519 20.4219 110.469 20.3175C110.332 20.1305 110.128 20.147 109.631 20.147V19.5202H109.637Z" fill="#525252"/>
<path d="M123.825 19.3166C124.575 17.7 124.646 16.2868 124.646 13.6199V10.0128H122.585V9.02855H129.063V10.0128H127.221V13.3615C127.221 14.7032 127.254 15.7919 127.342 16.6112C127.497 18.2608 128.142 19.9764 129.763 21.1861L129.079 21.9669C127.734 21.2026 126.708 20.0644 125.975 18.5303C125.413 20.0094 123.996 21.626 122.7 22.2914L122.033 21.4775C122.849 20.8507 123.45 20.1359 123.825 19.3166ZM128.004 14.3513H130.138V9.80937C130.138 9.11103 130.055 9.04505 129.404 9.04505V8.4347H132.442V23.4351H130.601C130.292 23.4351 130.143 23.2811 130.143 22.9952V15.429H128.009V14.3568L128.004 14.3513ZM132.696 8.4292H135.728V23.4296H133.903C133.578 23.4296 133.423 23.2756 133.423 22.9677V9.80387C133.423 9.12203 133.357 9.03955 132.69 9.03955V8.4292H132.696Z" fill="#525252"/>
<path d="M140.199 11.1843V10.2166C140.199 9.68869 139.89 9.6392 139.229 9.6392V9.02885H143.016V10.475C143.016 13.1254 144.058 15.0004 146.308 16.3586L145.745 17.1229C144.009 16.4576 142.641 15.3358 141.654 13.7907C140.954 15.4238 139.422 16.7985 137.442 17.6343L136.896 16.8535C139.063 15.5118 140.204 13.5543 140.204 11.1898L140.199 11.1843ZM138.407 18.2776H142.277V22.5831H149.864V23.4354H140.078C139.598 23.4354 139.377 23.1989 139.377 22.6381V19.5918C139.377 18.965 139.157 18.8935 138.407 18.8935V18.2831V18.2776ZM145.911 8.50098H149.61V13.1584H151.402V14.0106H149.61V19.2674H147.548C147.068 19.2674 146.881 19.0969 146.881 18.6185V9.80966C146.881 9.18281 146.66 9.11133 145.911 9.11133V8.50098Z" fill="#525252"/>
<path d="M161.887 15.6601V12.7348H160.128C160.007 14.9288 158.695 16.0341 156.153 16.0341C153.424 16.0341 152.062 14.8078 152.062 12.3609C152.062 9.91403 153.424 8.68783 156.153 8.68783C158.607 8.68783 159.902 9.68858 160.112 11.7506H161.887V9.79306C161.887 9.12772 161.595 9.09473 160.917 9.09473V8.48438H164.616V16.309H162.554C162.074 16.309 161.887 16.1385 161.887 15.6601ZM152.796 17.1888H156.495V19.2948H161.881V18.3105C161.881 17.7826 161.573 17.7331 160.911 17.7331V17.1228H164.611V23.4353H154.582C154.053 23.4353 153.766 23.1273 153.766 22.583V18.382C153.766 17.8046 153.391 17.8046 152.796 17.8046V17.1943V17.1888ZM156.159 15.0663C156.583 15.0663 156.909 14.9453 157.129 14.6924C157.554 14.214 157.609 13.5542 157.609 12.5809L157.625 12.0035C157.625 10.5904 157.372 9.67209 156.159 9.67209C154.946 9.67209 154.709 10.5574 154.709 11.9155V12.6469C154.709 14.126 154.929 15.0608 156.159 15.0608V15.0663ZM161.887 20.2845H156.501V22.4455H161.887V20.2845Z" fill="#525252"/>
<path d="M169.661 9.65548V9.29806C169.661 8.7372 169.303 8.7207 168.691 8.7207V8.11035H172.39V9.65548H175.186V10.6397H166.508V9.65548H169.661ZM176.536 16.1714L176.553 15.6435H174.215C173.603 16.3914 172.44 16.7818 170.891 16.7818C168.421 16.7818 166.938 15.7425 166.938 13.9939C166.938 12.2454 168.421 11.1896 170.891 11.1896C172.17 11.1896 173.14 11.4425 173.807 11.9539H176.553V8.50076H179.282V16.8862H177.22C176.674 16.8862 176.536 16.6333 176.536 16.1714ZM167.445 17.766H171.144V19.6521H176.531V18.8877C176.531 18.3599 176.222 18.3104 175.56 18.3104V17.7H179.26V23.4297H169.231C168.702 23.4297 168.415 23.1217 168.415 22.5774V18.9537C168.415 18.4259 168.107 18.3764 167.445 18.3764V17.766ZM170.891 15.9295C171.861 15.9295 172.203 15.4181 172.203 13.9884C172.203 12.5588 171.861 12.0144 170.891 12.0144C169.92 12.0144 169.579 12.5753 169.579 14.0544C169.579 15.4346 169.92 15.924 170.891 15.924V15.9295ZM176.536 20.6418H171.15V22.4454H176.536V20.6418ZM174.761 13.9939C174.761 14.1479 174.745 14.3678 174.695 14.6593H176.553V12.9437H174.574C174.695 13.3011 174.761 13.6585 174.761 13.9994V13.9939Z" fill="#525252"/>
<path d="M181.432 20.422H184.618V18.294C182.981 17.9036 181.939 16.6114 181.939 14.9618C181.939 13.0207 183.455 11.6296 185.897 11.6296C188.34 11.6296 189.768 12.9053 189.768 14.9618C189.768 16.5784 188.863 17.8046 187.347 18.261V20.422H190.793V21.4062H181.432V20.422ZM184.684 10.079V9.58407C184.684 8.95723 184.464 8.88574 183.714 8.88574V8.27539H187.551V10.079H190.192V11.0632H181.514V10.079H184.684ZM185.897 17.4637C186.697 17.4637 187.209 16.4794 187.209 14.9618C187.209 13.4441 186.713 12.6138 185.897 12.6138C185.081 12.6138 184.585 13.4826 184.585 14.9618C184.585 16.4409 185.098 17.4637 185.897 17.4637ZM190.484 8.53383H194.117V23.4847H192.039C191.648 23.4847 191.444 23.2978 191.444 22.9074V9.71054C191.444 9.16618 191.135 9.13318 190.49 9.13318V8.53933L190.484 8.53383Z" fill="#525252"/>
<path d="M6.55452 25.635C6.55452 23.771 4.86197 22.3028 2.92684 22.6712C1.74702 22.8967 0.793234 23.8424 0.56168 25.0137C0.175757 26.9492 1.65329 28.6538 3.52778 28.6538C5.19827 28.6538 6.55452 27.3011 6.55452 25.635Z" fill="#ACACAC"/>
<path d="M6.55348 18.0852C6.55348 16.4191 5.19724 15.0664 3.52674 15.0664C1.85624 15.0664 0.5 16.4191 0.5 18.0852C0.5 19.7513 1.85624 21.1039 3.52674 21.1039C5.19724 21.1039 6.55348 19.7513 6.55348 18.0852Z" fill="#ACACAC"/>
<path d="M6.55348 10.5354C6.55348 8.86378 5.19724 7.5166 3.52674 7.5166C1.85624 7.5166 0.5 8.86378 0.5 10.5354C0.5 12.207 1.85624 13.5541 3.52674 13.5541C5.19724 13.5541 6.55348 12.2015 6.55348 10.5354Z" fill="#ACACAC"/>
<path d="M14.1238 18.0852C14.1238 16.4191 12.7675 15.0664 11.0971 15.0664C9.42656 15.0664 8.07031 16.4191 8.07031 18.0852C8.07031 19.7513 9.42656 21.1039 11.0971 21.1039C12.7675 21.1039 14.1238 19.7513 14.1238 18.0852Z" fill="#ACACAC"/>
<path d="M14.1238 10.5354C14.1238 8.86378 12.7675 7.5166 11.0971 7.5166C9.42656 7.5166 8.07031 8.86927 8.07031 10.5354C8.07031 12.2015 9.42656 13.5541 11.0971 13.5541C12.7675 13.5541 14.1238 12.2015 14.1238 10.5354Z" fill="#ACACAC"/>
<path d="M14.1238 3.02427C14.1238 1.35817 12.7675 0 11.0971 0C9.42656 0 8.07031 1.35267 8.07031 3.02427C8.07031 4.69587 9.42656 6.04304 11.0971 6.04304C12.7675 6.04304 14.1238 4.69037 14.1238 3.02427Z" fill="#FDB913"/>
<path d="M21.6941 18.0852C21.6941 16.4191 20.3379 15.0664 18.6674 15.0664C16.9969 15.0664 15.6406 16.4191 15.6406 18.0852C15.6406 19.7513 16.9969 21.1039 18.6674 21.1039C20.3379 21.1039 21.6941 19.7513 21.6941 18.0852Z" fill="#ACACAC"/>
<path d="M21.6941 10.5354C21.6941 8.86378 20.3379 7.5166 18.6674 7.5166C16.9969 7.5166 15.6406 8.86927 15.6406 10.5354C15.6406 12.2015 16.9969 13.5541 18.6674 13.5541C20.3379 13.5541 21.6941 12.2015 21.6941 10.5354Z" fill="#ACACAC"/>
<path d="M21.6941 3.02427C21.6941 1.35817 20.3379 0 18.6674 0C16.9969 0 15.6406 1.35267 15.6406 3.02427C15.6406 4.69587 16.9969 6.04304 18.6674 6.04304C20.3379 6.04304 21.6941 4.69037 21.6941 3.02427Z" fill="#FDB913"/>
<path d="M29.2625 25.635C29.2625 23.9634 27.9062 22.6162 26.2357 22.6162C24.5652 22.6162 23.209 23.9689 23.209 25.635C23.209 27.3011 24.5652 28.6538 26.2357 28.6538C27.9062 28.6538 29.2625 27.3011 29.2625 25.635Z" fill="#ACACAC"/>
<path d="M29.2625 18.0852C29.2625 16.4191 27.9062 15.0664 26.2357 15.0664C24.5652 15.0664 23.209 16.4191 23.209 18.0852C23.209 19.7513 24.5652 21.1039 26.2357 21.1039C27.9062 21.1039 29.2625 19.7513 29.2625 18.0852Z" fill="#ACACAC"/>
<path d="M29.2625 10.5354C29.2625 8.86378 27.9062 7.5166 26.2357 7.5166C24.5652 7.5166 23.209 8.86927 23.209 10.5354C23.209 12.2015 24.5652 13.5541 26.2357 13.5541C27.9062 13.5541 29.2625 12.2015 29.2625 10.5354Z" fill="#ACACAC"/>
<path d="M24.4121 26.2837C24.4121 26.2837 24.4121 26.5971 24.7925 26.5971H25.195V27.0755C25.195 27.0755 25.195 27.4549 25.5092 27.4549C25.5092 27.4549 25.818 27.4549 25.818 27.0755V26.5971H26.5733V27.0755C26.5733 27.0755 26.5733 27.4549 26.8875 27.4549C26.8875 27.4549 27.1963 27.4549 27.1963 27.0755V26.5971H27.6814C27.6814 26.5971 28.0618 26.5971 28.0618 26.2837C28.0618 26.2837 28.0618 25.9758 27.6814 25.9758H27.1963V25.2225H27.6814C27.6814 25.2225 28.0618 25.2225 28.0618 24.9145C28.0618 24.9145 28.0618 24.6011 27.6814 24.6011H27.1963V24.1942C27.1963 24.1942 27.1963 23.8203 26.8875 23.8203C26.8875 23.8203 26.5733 23.8203 26.5733 24.1942V24.6011H25.818V24.1942C25.818 24.1942 25.818 23.8203 25.5092 23.8203C25.5092 23.8203 25.195 23.8203 25.195 24.1942V24.6011H24.7925C24.7925 24.6011 24.4121 24.6011 24.4121 24.9145C24.4121 24.9145 24.4121 25.2225 24.7925 25.2225H25.195V25.9758H24.7925C24.7925 25.9758 24.4121 25.9758 24.4121 26.2837ZM25.818 25.9758V25.2225H26.5733V25.9758H25.818Z" fill="white"/>
<path d="M5.10896 24.7219C5.10896 24.7219 4.95459 24.4524 4.62379 24.6394L3.84092 25.0958V24.1885C3.84092 24.1885 3.84092 23.8091 3.52667 23.8091C3.52667 23.8091 3.21793 23.8091 3.21793 24.1885V25.0958L2.43506 24.6394C2.43506 24.6394 2.10978 24.4524 1.9499 24.7219C1.9499 24.7219 1.79553 24.9913 2.12081 25.1838L2.90919 25.6346L2.12081 26.0855C2.12081 26.0855 1.79002 26.2725 1.9499 26.5419C1.9499 26.5419 2.10427 26.8114 2.43506 26.6189L3.21793 26.168V27.0698C3.21793 27.0698 3.21793 27.4492 3.52667 27.4492C3.52667 27.4492 3.84092 27.4492 3.84092 27.0698V26.168L4.62379 26.6189C4.62379 26.6189 4.94907 26.8114 5.10896 26.5419C5.10896 26.5419 5.26884 26.2725 4.93805 26.0855L4.14966 25.6346L4.93805 25.1838C4.93805 25.1838 5.26332 24.9968 5.10896 24.7219Z" fill="white"/>
<path d="M9.4304 27.1807V24.4534H9.83523V24.8795H9.87074C9.92756 24.7339 10.0193 24.6209 10.146 24.5404C10.2726 24.4587 10.4247 24.4179 10.6023 24.4179C10.7822 24.4179 10.9319 24.4587 11.0515 24.5404C11.1722 24.6209 11.2663 24.7339 11.3338 24.8795H11.3622C11.4321 24.7387 11.5368 24.6268 11.6765 24.5439C11.8162 24.4599 11.9837 24.4179 12.179 24.4179C12.4228 24.4179 12.6223 24.4942 12.7773 24.6469C12.9324 24.7984 13.0099 25.0346 13.0099 25.3554V27.1807H12.5909V25.3554C12.5909 25.1541 12.5359 25.0103 12.4258 24.9239C12.3157 24.8375 12.1861 24.7943 12.0369 24.7943C11.8452 24.7943 11.6966 24.8523 11.5913 24.9683C11.4859 25.0831 11.4332 25.2287 11.4332 25.4051V27.1807H11.0071V25.3128C11.0071 25.1577 10.9568 25.0328 10.8562 24.9381C10.7556 24.8422 10.6259 24.7943 10.4673 24.7943C10.3584 24.7943 10.2566 24.8233 10.1619 24.8813C10.0684 24.9393 9.99266 25.0198 9.93466 25.1228C9.87784 25.2246 9.84943 25.3424 9.84943 25.4761V27.1807H9.4304ZM13.7761 28.2034V24.4534H14.1809V24.8866H14.2306C14.2614 24.8393 14.304 24.7789 14.3585 24.7055C14.4141 24.6309 14.4934 24.5647 14.5964 24.5067C14.7006 24.4475 14.8414 24.4179 15.019 24.4179C15.2486 24.4179 15.4511 24.4753 15.6262 24.5901C15.8014 24.7049 15.9382 24.8677 16.0364 25.0784C16.1346 25.2891 16.1838 25.5377 16.1838 25.8241C16.1838 26.113 16.1346 26.3633 16.0364 26.5752C15.9382 26.7859 15.802 26.9492 15.628 27.0653C15.454 27.1801 15.2534 27.2375 15.0261 27.2375C14.8509 27.2375 14.7106 27.2085 14.6053 27.1505C14.4999 27.0913 14.4189 27.0244 14.362 26.9498C14.3052 26.8741 14.2614 26.8113 14.2306 26.7616H14.1951V28.2034H13.7761ZM14.188 25.817C14.188 26.023 14.2182 26.2047 14.2786 26.3621C14.339 26.5184 14.4271 26.6409 14.5431 26.7297C14.6592 26.8173 14.8012 26.8611 14.9693 26.8611C15.1445 26.8611 15.2907 26.8149 15.4078 26.7226C15.5262 26.6291 15.615 26.5036 15.6742 26.3461C15.7346 26.1875 15.7647 26.0112 15.7647 25.817C15.7647 25.6253 15.7351 25.4524 15.676 25.2986C15.618 25.1435 15.5298 25.021 15.4114 24.931C15.2942 24.8399 15.1468 24.7943 14.9693 24.7943C14.7988 24.7943 14.6556 24.8375 14.5396 24.9239C14.4236 25.0091 14.336 25.1287 14.2768 25.2826C14.2176 25.4353 14.188 25.6134 14.188 25.817ZM16.823 27.1807V24.4534H17.242V27.1807H16.823ZM17.036 23.9988C16.9544 23.9988 16.8839 23.971 16.8248 23.9154C16.7667 23.8598 16.7377 23.7929 16.7377 23.7148C16.7377 23.6366 16.7667 23.5698 16.8248 23.5141C16.8839 23.4585 16.9544 23.4307 17.036 23.4307C17.1177 23.4307 17.1876 23.4585 17.2456 23.5141C17.3047 23.5698 17.3343 23.6366 17.3343 23.7148C17.3343 23.7929 17.3047 23.8598 17.2456 23.9154C17.1876 23.971 17.1177 23.9988 17.036 23.9988ZM18.8121 27.2446C18.6392 27.2446 18.4824 27.212 18.3415 27.1469C18.2007 27.0806 18.0888 26.9854 18.0059 26.8611C17.9231 26.7356 17.8817 26.5841 17.8817 26.4065C17.8817 26.2503 17.9124 26.1236 17.974 26.0265C18.0355 25.9283 18.1178 25.8514 18.2208 25.7957C18.3238 25.7401 18.4374 25.6987 18.5617 25.6714C18.6872 25.643 18.8132 25.6205 18.9399 25.604C19.1056 25.5827 19.24 25.5667 19.343 25.556C19.4471 25.5442 19.5229 25.5247 19.5702 25.4974C19.6188 25.4702 19.643 25.4229 19.643 25.3554V25.3412C19.643 25.166 19.5951 25.0299 19.4992 24.9328C19.4045 24.8357 19.2607 24.7872 19.0677 24.7872C18.8677 24.7872 18.7108 24.831 18.5972 24.9186C18.4836 25.0062 18.4037 25.0997 18.3575 25.1991L17.9598 25.0571C18.0308 24.8914 18.1255 24.7623 18.2439 24.67C18.3634 24.5765 18.4936 24.5114 18.6345 24.4747C18.7765 24.4368 18.9162 24.4179 19.0535 24.4179C19.1411 24.4179 19.2417 24.4285 19.3554 24.4498C19.4702 24.47 19.5809 24.512 19.6874 24.5759C19.7951 24.6398 19.8845 24.7363 19.9555 24.8653C20.0265 24.9943 20.0621 25.1672 20.0621 25.3838V27.1807H19.643V26.8113H19.6217C19.5933 26.8705 19.546 26.9339 19.4797 27.0013C19.4134 27.0688 19.3252 27.1262 19.2151 27.1736C19.105 27.2209 18.9707 27.2446 18.8121 27.2446ZM18.876 26.8682C19.0417 26.8682 19.1814 26.8356 19.295 26.7705C19.4098 26.7054 19.4962 26.6214 19.5542 26.5184C19.6134 26.4154 19.643 26.3071 19.643 26.1934V25.8099C19.6253 25.8312 19.5862 25.8508 19.5258 25.8685C19.4666 25.8851 19.398 25.8999 19.3199 25.9129C19.2429 25.9247 19.1678 25.9354 19.0944 25.9449C19.0222 25.9532 18.9636 25.9603 18.9186 25.9662C18.8097 25.9804 18.7079 26.0035 18.6132 26.0354C18.5197 26.0662 18.4439 26.113 18.3859 26.1757C18.3291 26.2372 18.3007 26.3213 18.3007 26.4278C18.3007 26.5734 18.3546 26.6835 18.4623 26.7581C18.5712 26.8315 18.7091 26.8682 18.876 26.8682Z" fill="#7C8081"/>
</g>
<defs>
<clipPath id="clip0_107_292">
<rect width="194" height="35" fill="white" transform="translate(0.5)"/>
</clipPath>
</defs>
</svg>
