<svg width="227" height="34" viewBox="0 0 227 34" fill="none" xmlns="http://www.w3.org/2000/svg">
<g clip-path="url(#clip0_107_786)">
<path d="M44.7871 11.617V10.9981C44.7871 10.3405 44.367 10.3212 43.6495 10.3212V9.60561H47.9867V11.617H51.2638V12.7709H41.0898V11.617H44.7871ZM46.2285 13.435C49.0855 13.435 50.7661 14.8081 50.7661 17.1418C50.7661 19.4755 49.0273 21.0292 46.2285 21.0292C43.4297 21.0292 41.5875 19.5142 41.5875 17.1418C41.5875 14.7694 43.3457 13.435 46.2285 13.435ZM42.5313 22.2283H47.0688V26.4767H55.9629V27.4759H44.4898C43.9274 27.4759 43.6689 27.1987 43.6689 26.5411V23.769C43.6689 23.0341 43.4103 22.9503 42.5313 22.9503V22.2347V22.2283ZM46.2285 19.8752C47.211 19.8752 47.7669 18.876 47.7669 17.1418C47.7669 15.4077 47.2498 14.5889 46.2285 14.5889C45.2072 14.5889 44.6901 15.4463 44.6901 17.1418C44.6901 18.8373 45.2525 19.8752 46.2285 19.8752ZM52.466 22.2283V11.5009C52.466 10.766 52.2075 10.6822 51.3284 10.6822V9.96662H55.6656V15.9685H57.7663V16.9484H55.6656V22.989H53.2481C52.6664 22.989 52.466 22.8085 52.466 22.2283Z" fill="white"/>
<path d="M69.258 26.7152V22.5893H59.7628V21.4353H64.4813L64.5007 18.8824H58.5605V17.7285H68.7991C69.0771 16.51 69.2192 15.1369 69.2192 13.6219V11.6492H59.821V10.4953H71.5979C72.2766 10.4953 72.6192 10.8756 72.6192 11.6105C72.6192 13.9249 71.9211 16.0781 70.6607 17.7349H73.9572V18.8889H68.017L67.9976 21.4418H72.658V27.4824H70.0401C69.4778 27.4824 69.258 27.2825 69.258 26.7216V26.7152Z" fill="white"/>
<path d="M75.1602 24.9617H81.1197V19.6367H77.4612C76.8407 19.6367 76.5046 19.2757 76.5046 18.6181V12.0167C76.5046 11.2818 76.2461 11.1979 75.367 11.1979V10.4824H88.5789C89.0378 10.4824 89.2188 10.7015 89.2188 11.1979V19.6303H84.6425V24.9552H90.5632V26.1092H75.1666V24.9552L75.1602 24.9617ZM86.0128 11.6363H79.6977V18.4763H86.0128V11.6363Z" fill="white"/>
<path d="M92.4892 24.8199V12.0167C92.4892 11.2818 92.2306 11.198 91.3516 11.198V10.4824H95.5918V16.6454H97.8929V11.7782C97.8929 11.1206 97.5955 11.1013 96.891 11.1013V10.3857H100.892V25.8191H93.4523C92.8318 25.8191 92.4956 25.4581 92.4956 24.8199H92.4892ZM97.8864 17.7994H95.5853V24.6587H97.8864V17.7994ZM101.745 10.0053H106.005V17.5028H108.067V18.6568H106.005V27.5275H103.568C103.109 27.5275 102.889 27.3083 102.889 26.8506V11.3785C102.889 10.7402 102.527 10.7016 101.752 10.7016V10.0053H101.745Z" fill="white"/>
<path d="M113.724 10.1858C116.846 10.1858 118.404 11.559 118.404 14.2924C118.404 17.0258 116.846 18.4183 113.724 18.4183C110.602 18.4183 108.928 17.0193 108.928 14.2924C108.928 11.5654 110.55 10.1858 113.724 10.1858ZM111.862 26.5154V24.4395C111.862 23.6595 111.52 23.6401 110.725 23.6401V22.9245H120.259V20.5328H111.462V19.5336H123.659V23.898H115.262V26.4509H123.956V27.4501H112.838C112.218 27.4501 111.856 27.0891 111.856 26.5154H111.862ZM113.724 17.2643C114.907 17.2643 115.424 16.3489 115.424 14.2924C115.424 12.2359 114.907 11.3398 113.724 11.3398C112.541 11.3398 112.024 12.2165 112.024 14.2924C112.024 16.3682 112.541 17.2643 113.724 17.2643ZM119.302 9.96662H123.639V18.6181H121.222C120.64 18.6181 120.44 18.4183 120.44 17.8574V11.4945C120.44 10.7596 120.181 10.6758 119.302 10.6758V9.96017V9.96662Z" fill="white"/>
<path d="M131.634 12.2746V11.4752H126.437V10.4759H134.096C134.594 10.4759 134.756 10.8176 134.756 11.372L134.736 12.0102H137.632C137.632 11.5138 137.632 11.1915 137.613 11.0303C137.554 10.6887 137.192 10.592 136.494 10.592V9.87637H140.831V18.5666H138.414C137.832 18.5666 137.632 18.3667 137.632 17.8058V16.2715H134.032V15.2916H137.632V12.9772H134.672C134.271 16.149 131.175 18.2636 126.198 18.6826L125.881 18.025C129.636 17.2901 131.64 15.2916 131.64 12.2617L131.634 12.2746ZM127.956 22.8859H137.432V20.5328H128.634V19.5336H140.831V23.8593H132.435V26.4509H141.129V27.4501H130.011C129.391 27.4501 129.029 27.0891 129.029 26.5154V24.4202C129.029 24.143 128.99 23.9431 128.932 23.8206C128.77 23.6014 128.531 23.6208 127.949 23.6208V22.8859H127.956Z" fill="white"/>
<path d="M144.587 22.6473C145.466 20.752 145.55 19.0952 145.55 15.9685V11.7395H143.133V10.5855H150.728V11.7395H148.569V15.6655C148.569 17.2385 148.607 18.515 148.711 19.4755C148.892 21.4096 149.648 23.4209 151.548 24.8392L150.747 25.7547C149.17 24.8586 147.968 23.5241 147.108 21.7255C146.449 23.4596 144.787 25.355 143.268 26.135L142.486 25.1809C143.443 24.446 144.148 23.6079 144.587 22.6473ZM149.487 16.8259H151.988V11.501C151.988 10.6822 151.891 10.6049 151.128 10.6049V9.88927H154.69V27.4759H152.531C152.169 27.4759 151.994 27.2954 151.994 26.9602V18.0895H149.493V16.8324L149.487 16.8259ZM154.987 9.88283H158.542V27.4695H156.403C156.021 27.4695 155.84 27.289 155.84 26.928V11.4945C155.84 10.6951 155.763 10.5984 154.981 10.5984V9.88283H154.987Z" fill="white"/>
<path d="M163.786 13.1126V11.978C163.786 11.3591 163.424 11.3011 162.648 11.3011V10.5855H167.089V12.281C167.089 15.3883 168.31 17.5867 170.948 19.179L170.288 20.0751C168.252 19.295 166.649 17.9799 165.492 16.1684C164.671 18.083 162.874 19.6947 160.554 20.6746L159.914 19.7592C162.454 18.1862 163.792 15.8912 163.792 13.1191L163.786 13.1126ZM161.685 21.4289H166.223V26.4767H175.117V27.4759H163.644C163.081 27.4759 162.823 27.1987 162.823 26.5411V22.9697C162.823 22.2347 162.564 22.1509 161.685 22.1509V21.4353V21.4289ZM170.482 9.96663H174.819V15.427H176.92V16.4262H174.819V22.5893H172.402C171.84 22.5893 171.62 22.3895 171.62 21.8286V11.5009C171.62 10.766 171.361 10.6822 170.482 10.6822V9.96663Z" fill="white"/>
<path d="M189.214 18.3602V14.9306H187.152C187.01 17.5028 185.471 18.7986 182.491 18.7986C179.292 18.7986 177.695 17.361 177.695 14.4922C177.695 11.6234 179.292 10.1858 182.491 10.1858C185.368 10.1858 186.887 11.3591 187.132 13.7766H189.214V11.4816C189.214 10.7015 188.871 10.6629 188.076 10.6629V9.94728H192.413V19.121H189.996C189.433 19.121 189.214 18.9211 189.214 18.3602ZM178.555 20.1524H182.892V22.6215H189.207V21.4676C189.207 20.8487 188.845 20.7907 188.07 20.7907V20.0751H192.407V27.4759H180.649C180.029 27.4759 179.693 27.1149 179.693 26.4767V21.5514C179.693 20.8745 179.253 20.8745 178.555 20.8745V20.1589V20.1524ZM182.498 17.664C182.996 17.664 183.377 17.5222 183.635 17.2256C184.133 16.6648 184.198 15.8912 184.198 14.7501L184.217 14.0732C184.217 12.4164 183.92 11.3398 182.498 11.3398C181.076 11.3398 180.798 12.3777 180.798 13.97V14.8274C180.798 16.5616 181.056 17.6576 182.498 17.6576V17.664ZM189.214 23.7819H182.899V26.3155H189.214V23.7819Z" fill="white"/>
<path d="M198.326 11.3204V10.9014C198.326 10.2438 197.906 10.2245 197.189 10.2245V9.50891H201.526V11.3204H204.803V12.4744H194.629V11.3204H198.326ZM206.386 18.9598L206.406 18.3409H203.665C202.948 19.2177 201.584 19.6754 199.768 19.6754C196.872 19.6754 195.133 18.457 195.133 16.4069C195.133 14.3568 196.872 13.1191 199.768 13.1191C201.267 13.1191 202.405 13.4156 203.187 14.0152H206.406V9.96663H209.605V19.7979H207.188C206.548 19.7979 206.386 19.5013 206.386 18.9598ZM195.728 20.8294H200.065V23.0406H206.38V22.1445C206.38 21.5256 206.018 21.4676 205.242 21.4676V20.752H209.58V27.4695H197.822C197.201 27.4695 196.865 27.1085 196.865 26.4702V22.2218C196.865 21.603 196.503 21.5449 195.728 21.5449V20.8294ZM199.768 18.6761C200.905 18.6761 201.306 18.0766 201.306 16.4005C201.306 14.7243 200.905 14.0861 199.768 14.0861C198.63 14.0861 198.229 14.7436 198.229 16.4778C198.229 18.0959 198.63 18.6697 199.768 18.6697V18.6761ZM206.386 24.201H200.071V26.3155H206.386V24.201ZM204.305 16.4069C204.305 16.5874 204.286 16.8453 204.228 17.187H206.406V15.1756H204.085C204.228 15.5946 204.305 16.0137 204.305 16.4133V16.4069Z" fill="white"/>
<path d="M212.127 23.9431H215.863V21.4482C213.943 20.9905 212.722 19.4755 212.722 17.5415C212.722 15.2658 214.499 13.6348 217.363 13.6348C220.226 13.6348 221.9 15.1305 221.9 17.5415C221.9 19.4369 220.84 20.8745 219.063 21.4096V23.9431H223.102V25.0971H212.127V23.9431ZM215.941 11.8168V11.2366C215.941 10.5017 215.682 10.4179 214.803 10.4179V9.70232H219.302V11.8168H222.398V12.9708H212.224V11.8168H215.941ZM217.363 20.4748C218.3 20.4748 218.901 19.3208 218.901 17.5415C218.901 15.7622 218.319 14.7888 217.363 14.7888C216.406 14.7888 215.824 15.8074 215.824 17.5415C215.824 19.2757 216.425 20.4748 217.363 20.4748ZM222.74 10.0053H227V27.5339H224.563C224.104 27.5339 223.865 27.3148 223.865 26.857V11.3849C223.865 10.7467 223.503 10.708 222.747 10.708V10.0118L222.74 10.0053Z" fill="white"/>
<path d="M7.09644 30.0546C7.09644 27.8692 5.11208 26.1479 2.84331 26.5798C1.46007 26.8441 0.341839 27.953 0.0703619 29.3261C-0.3821 31.5954 1.35018 33.5939 3.54785 33.5939C5.50637 33.5939 7.09644 32.008 7.09644 30.0546Z" fill="#41AD49"/>
<path d="M7.09718 21.2033C7.09718 19.2499 5.5071 17.664 3.54859 17.664C1.59008 17.664 0 19.2499 0 21.2033C0 23.1566 1.59008 24.7425 3.54859 24.7425C5.5071 24.7425 7.09718 23.1566 7.09718 21.2033Z" fill="#41AD49"/>
<path d="M7.09718 12.3519C7.09718 10.3921 5.5071 8.81267 3.54859 8.81267C1.59008 8.81267 0 10.3921 0 12.3519C0 14.3117 1.59008 15.8912 3.54859 15.8912C5.5071 15.8912 7.09718 14.3053 7.09718 12.3519Z" fill="#41AD49"/>
<path d="M15.9702 21.2033C15.9702 19.2499 14.3802 17.664 12.4216 17.664C10.4631 17.664 8.87305 19.2499 8.87305 21.2033C8.87305 23.1566 10.4631 24.7425 12.4216 24.7425C14.3802 24.7425 15.9702 23.1566 15.9702 21.2033Z" fill="#41AD49"/>
<path d="M15.9702 12.3519C15.9702 10.3921 14.3802 8.81267 12.4216 8.81267C10.4631 8.81267 8.87305 10.3986 8.87305 12.3519C8.87305 14.3053 10.4631 15.8912 12.4216 15.8912C14.3802 15.8912 15.9702 14.3053 15.9702 12.3519Z" fill="#41AD49"/>
<path d="M15.9702 3.5457C15.9702 1.59234 14.3802 0 12.4216 0C10.4631 0 8.87305 1.58589 8.87305 3.5457C8.87305 5.5055 10.4631 7.08494 12.4216 7.08494C14.3802 7.08494 15.9702 5.49905 15.9702 3.5457Z" fill="#FDB913"/>
<path d="M24.8472 21.2033C24.8472 19.2499 23.2571 17.664 21.2986 17.664C19.3401 17.664 17.75 19.2499 17.75 21.2033C17.75 23.1566 19.3401 24.7425 21.2986 24.7425C23.2571 24.7425 24.8472 23.1566 24.8472 21.2033Z" fill="#41AD49"/>
<path d="M24.8472 12.3519C24.8472 10.3921 23.2571 8.81267 21.2986 8.81267C19.3401 8.81267 17.75 10.3986 17.75 12.3519C17.75 14.3053 19.3401 15.8912 21.2986 15.8912C23.2571 15.8912 24.8472 14.3053 24.8472 12.3519Z" fill="#41AD49"/>
<path d="M24.8472 3.5457C24.8472 1.59234 23.2571 0 21.2986 0C19.3401 0 17.75 1.58589 17.75 3.5457C17.75 5.5055 19.3401 7.08494 21.2986 7.08494C23.2571 7.08494 24.8472 5.49905 24.8472 3.5457Z" fill="#FDB913"/>
<path d="M33.7202 30.0546C33.7202 28.0948 32.1302 26.5154 30.1716 26.5154C28.2131 26.5154 26.623 28.1012 26.623 30.0546C26.623 32.008 28.2131 33.5938 30.1716 33.5938C32.1302 33.5938 33.7202 32.008 33.7202 30.0546Z" fill="#41AD49"/>
<path d="M33.7202 21.2033C33.7202 19.2499 32.1302 17.664 30.1716 17.664C28.2131 17.664 26.623 19.2499 26.623 21.2033C26.623 23.1566 28.2131 24.7425 30.1716 24.7425C32.1302 24.7425 33.7202 23.1566 33.7202 21.2033Z" fill="#41AD49"/>
<path d="M33.7202 12.3519C33.7202 10.3921 32.1302 8.81267 30.1716 8.81267C28.2131 8.81267 26.623 10.3986 26.623 12.3519C26.623 14.3053 28.2131 15.8912 30.1716 15.8912C32.1302 15.8912 33.7202 14.3053 33.7202 12.3519Z" fill="#41AD49"/>
<path d="M28.0312 30.8153C28.0312 30.8153 28.0313 31.1828 28.4772 31.1828H28.9491V31.7436C28.9491 31.7436 28.9491 32.1885 29.3175 32.1885C29.3175 32.1885 29.6795 32.1885 29.6795 31.7436V31.1828H30.565V31.7436C30.565 31.7436 30.565 32.1885 30.9335 32.1885C30.9335 32.1885 31.2954 32.1885 31.2954 31.7436V31.1828H31.8642C31.8642 31.1828 32.3102 31.1828 32.3102 30.8153C32.3102 30.8153 32.3102 30.4543 31.8642 30.4543H31.2954V29.5711H31.8642C31.8642 29.5711 32.3102 29.5711 32.3102 29.2101C32.3102 29.2101 32.3102 28.8426 31.8642 28.8426H31.2954V28.3656C31.2954 28.3656 31.2954 27.9272 30.9335 27.9272C30.9335 27.9272 30.565 27.9272 30.565 28.3656V28.8426H29.6795V28.3656C29.6795 28.3656 29.6795 27.9272 29.3175 27.9272C29.3175 27.9272 28.9491 27.9272 28.9491 28.3656V28.8426H28.4772C28.4772 28.8426 28.0312 28.8426 28.0312 29.2101C28.0312 29.2101 28.0313 29.5711 28.4772 29.5711H28.9491V30.4543H28.4772C28.4772 30.4543 28.0312 30.4543 28.0312 30.8153ZM29.6795 30.4543V29.5711H30.565V30.4543H29.6795Z" fill="white"/>
<path d="M5.40333 28.9844C5.40333 28.9844 5.22235 28.6686 4.83452 28.8877L3.91667 29.4228V28.3591C3.91667 28.3591 3.91667 27.9143 3.54824 27.9143C3.54824 27.9143 3.18627 27.9143 3.18627 28.3591V29.4228L2.26842 28.8877C2.26842 28.8877 1.88706 28.6686 1.69961 28.9844C1.69961 28.9844 1.51863 29.3003 1.89999 29.526L2.8243 30.0546L1.89999 30.5832C1.89999 30.5832 1.51216 30.8024 1.69961 31.1183C1.69961 31.1183 1.8806 31.4342 2.26842 31.2086L3.18627 30.6799V31.7372C3.18627 31.7372 3.18627 32.182 3.54824 32.182C3.54824 32.182 3.91667 32.182 3.91667 31.7372V30.6799L4.83452 31.2086C4.83452 31.2086 5.21588 31.4342 5.40333 31.1183C5.40333 31.1183 5.59078 30.8024 5.20296 30.5832L4.27864 30.0546L5.20296 29.526C5.20296 29.526 5.58432 29.3068 5.40333 28.9844Z" fill="white"/>
<path d="M9.55451 31.8328V28.0146H10.1213V28.6112H10.171C10.2505 28.4073 10.379 28.2491 10.5563 28.1364C10.7336 28.022 10.9466 27.9649 11.1951 27.9649C11.447 27.9649 11.6567 28.022 11.824 28.1364C11.9931 28.2491 12.1248 28.4073 12.2193 28.6112H12.2591C12.3568 28.414 12.5035 28.2574 12.699 28.1414C12.8946 28.0237 13.1291 27.9649 13.4025 27.9649C13.7439 27.9649 14.0231 28.0718 14.2402 28.2855C14.4573 28.4977 14.5659 28.8283 14.5659 29.2774V31.8328H13.9792V29.2774C13.9792 28.9956 13.9022 28.7943 13.748 28.6733C13.5939 28.5523 13.4125 28.4919 13.2037 28.4919C12.9352 28.4919 12.7272 28.5731 12.5797 28.7355C12.4322 28.8962 12.3585 29.1 12.3585 29.347V31.8328H11.7619V29.2177C11.7619 29.0006 11.6915 28.8258 11.5506 28.6932C11.4097 28.559 11.2283 28.4919 11.0062 28.4919C10.8538 28.4919 10.7112 28.5325 10.5787 28.6137C10.4477 28.6949 10.3417 28.8076 10.2605 28.9517C10.1809 29.0942 10.1412 29.2591 10.1412 29.4464V31.8328H9.55451ZM15.6385 33.2646V28.0146H16.2053V28.6211H16.2749C16.3179 28.5548 16.3776 28.4703 16.4538 28.3676C16.5317 28.2632 16.6428 28.1704 16.7869 28.0892C16.9328 28.0063 17.13 27.9649 17.3786 27.9649C17.7 27.9649 17.9834 28.0452 18.2287 28.206C18.474 28.3667 18.6654 28.5946 18.8029 28.8896C18.9405 29.1846 19.0092 29.5326 19.0092 29.9336C19.0092 30.338 18.9405 30.6885 18.8029 30.9851C18.6654 31.2801 18.4748 31.5088 18.2312 31.6712C17.9876 31.8319 17.7067 31.9123 17.3885 31.9123C17.1432 31.9123 16.9469 31.8717 16.7994 31.7905C16.6519 31.7076 16.5384 31.614 16.4588 31.5096C16.3793 31.4035 16.3179 31.3157 16.2749 31.2461H16.2251V33.2646H15.6385ZM16.2152 29.9237C16.2152 30.212 16.2575 30.4664 16.342 30.6868C16.4265 30.9056 16.55 31.0771 16.7124 31.2014C16.8748 31.324 17.0736 31.3853 17.3089 31.3853C17.5542 31.3853 17.7589 31.3207 17.9229 31.1914C18.0887 31.0605 18.2129 30.8848 18.2958 30.6644C18.3803 30.4424 18.4226 30.1955 18.4226 29.9237C18.4226 29.6552 18.3812 29.4133 18.2983 29.1978C18.2171 28.9807 18.0936 28.8092 17.9279 28.6833C17.7638 28.5557 17.5575 28.4919 17.3089 28.4919C17.0703 28.4919 16.8698 28.5523 16.7074 28.6733C16.545 28.7926 16.4223 28.96 16.3395 29.1754C16.2566 29.3892 16.2152 29.6386 16.2152 29.9237ZM19.9041 31.8328V28.0146H20.4908V31.8328H19.9041ZM20.2024 27.3782C20.0881 27.3782 19.9895 27.3393 19.9066 27.2614C19.8254 27.1835 19.7848 27.0899 19.7848 26.9805C19.7848 26.8711 19.8254 26.7775 19.9066 26.6996C19.9895 26.6217 20.0881 26.5828 20.2024 26.5828C20.3168 26.5828 20.4145 26.6217 20.4957 26.6996C20.5786 26.7775 20.62 26.8711 20.62 26.9805C20.62 27.0899 20.5786 27.1835 20.4957 27.2614C20.4145 27.3393 20.3168 27.3782 20.2024 27.3782ZM22.6888 31.9223C22.4469 31.9223 22.2273 31.8767 22.0301 31.7855C21.8329 31.6927 21.6763 31.5593 21.5603 31.3853C21.4443 31.2097 21.3863 30.9975 21.3863 30.749C21.3863 30.5302 21.4294 30.3529 21.5155 30.217C21.6017 30.0794 21.7169 29.9717 21.8611 29.8938C22.0052 29.816 22.1643 29.758 22.3383 29.7198C22.514 29.6801 22.6905 29.6486 22.8678 29.6254C23.0998 29.5955 23.2879 29.5732 23.4321 29.5583C23.5779 29.5417 23.684 29.5143 23.7503 29.4762C23.8182 29.4381 23.8522 29.3718 23.8522 29.2774V29.2575C23.8522 29.0122 23.7851 28.8216 23.6508 28.6857C23.5183 28.5499 23.3169 28.4819 23.0468 28.4819C22.7667 28.4819 22.5471 28.5432 22.3881 28.6659C22.229 28.7885 22.1171 28.9194 22.0525 29.0586L21.4956 28.8598C21.5951 28.6277 21.7277 28.4471 21.8934 28.3178C22.0608 28.1869 22.243 28.0958 22.4403 28.0444C22.6391 27.9914 22.8347 27.9649 23.0269 27.9649C23.1495 27.9649 23.2904 27.9798 23.4495 28.0096C23.6102 28.0378 23.7652 28.0966 23.9143 28.1861C24.0651 28.2756 24.1903 28.4107 24.2897 28.5913C24.3891 28.7719 24.4388 29.0139 24.4388 29.3171V31.8328H23.8522V31.3157H23.8224C23.7826 31.3986 23.7163 31.4872 23.6235 31.5817C23.5307 31.6762 23.4072 31.7565 23.2531 31.8228C23.099 31.8891 22.9109 31.9223 22.6888 31.9223ZM22.7783 31.3953C23.0103 31.3953 23.2059 31.3497 23.365 31.2585C23.5257 31.1674 23.6467 31.0497 23.7279 30.9056C23.8108 30.7614 23.8522 30.6098 23.8522 30.4507V29.9137C23.8273 29.9436 23.7726 29.9709 23.6881 29.9958C23.6053 30.019 23.5091 30.0397 23.3998 30.0579C23.2921 30.0745 23.1868 30.0894 23.0841 30.1027C22.983 30.1143 22.901 30.1242 22.838 30.1325C22.6855 30.1524 22.543 30.1847 22.4104 30.2294C22.2795 30.2725 22.1734 30.338 22.0922 30.4258C22.0127 30.512 21.9729 30.6296 21.9729 30.7788C21.9729 30.9826 22.0483 31.1367 22.1991 31.2411C22.3516 31.3439 22.5447 31.3953 22.7783 31.3953Z" fill="#7C8081"/>
</g>
<defs>
<clipPath id="clip0_107_786">
<rect width="227" height="34" fill="white"/>
</clipPath>
</defs>
</svg>
