<svg width="222" height="40" viewBox="0 0 222 40" fill="none" xmlns="http://www.w3.org/2000/svg">
<g clip-path="url(#clip0_107_1531)">
<path d="M43.6568 11.324V10.7207C43.6568 10.0797 43.2472 10.0608 42.5478 10.0608V9.36328H46.7757V11.324H49.9702V12.4488H40.0527V11.324H43.6568ZM45.0619 13.0961C47.8468 13.0961 49.485 14.4346 49.485 16.7095C49.485 18.9844 47.7901 20.4989 45.0619 20.4989C42.3336 20.4989 40.5379 19.0221 40.5379 16.7095C40.5379 14.3969 42.2517 13.0961 45.0619 13.0961ZM41.4578 21.6677H45.881V25.809H54.5508V26.7831H43.3669C42.8188 26.7831 42.5667 26.5129 42.5667 25.8719V23.1697C42.5667 22.4533 42.3147 22.3716 41.4578 22.3716V21.674V21.6677ZM45.0619 19.374C46.0196 19.374 46.5614 18.4 46.5614 16.7095C46.5614 15.0191 46.0574 14.221 45.0619 14.221C44.0663 14.221 43.5623 15.0568 43.5623 16.7095C43.5623 18.3623 44.1104 19.374 45.0619 19.374ZM51.1421 21.6677V11.2108C51.1421 10.4944 50.8901 10.4127 50.0332 10.4127V9.7152H54.261V15.5658H56.3088V16.521H54.261V22.4093H51.9045C51.3374 22.4093 51.1421 22.2333 51.1421 21.6677Z" fill="#525252"/>
<path d="M67.5118 26.0415V22.0196H58.2559V20.8948H62.8555L62.8744 18.4062H57.084V17.2813H67.0644C67.3354 16.0936 67.474 14.7551 67.474 13.2783V11.3553H58.3126V10.2305H69.7927C70.4543 10.2305 70.7882 10.6012 70.7882 11.3176C70.7882 13.5737 70.1077 15.6726 68.8791 17.2876H72.0925V18.4125H66.302L66.2831 20.901H70.826V26.7893H68.2742C67.726 26.7893 67.5118 26.5945 67.5118 26.0478V26.0415Z" fill="#525252"/>
<path d="M73.2617 24.3321H79.071V19.1413H75.5048C74.8999 19.1413 74.5723 18.7894 74.5723 18.1484V11.7134C74.5723 10.997 74.3203 10.9153 73.4633 10.9153V10.2178H86.3421C86.7895 10.2178 86.9659 10.4314 86.9659 10.9153V19.135H82.505V24.3258H88.2765V25.4507H73.268V24.3258L73.2617 24.3321ZM83.8407 11.3426H77.6849V18.0102H83.8407V11.3426Z" fill="#525252"/>
<path d="M90.1578 24.194V11.7136C90.1578 10.9972 89.9057 10.9155 89.0488 10.9155V10.218H93.1821V16.2257H95.4252V11.4811C95.4252 10.8401 95.1354 10.8212 94.4486 10.8212V10.1237H98.3488V25.1681H91.0966C90.4917 25.1681 90.1641 24.8161 90.1641 24.194H90.1578ZM95.4189 17.3505H93.1758V24.0369H95.4189V17.3505ZM99.1805 9.75293H103.333V17.0614H105.343V18.1863H103.333V26.8334H100.957C100.51 26.8334 100.296 26.6197 100.296 26.1735V11.0915C100.296 10.4693 99.9429 10.4316 99.1868 10.4316V9.75293H99.1805Z" fill="#525252"/>
<path d="M110.855 9.92869C113.898 9.92869 115.417 11.2672 115.417 13.9317C115.417 16.5962 113.898 17.9536 110.855 17.9536C107.812 17.9536 106.18 16.5899 106.18 13.9317C106.18 11.2735 107.761 9.92869 110.855 9.92869ZM109.04 25.8466V23.823C109.04 23.0627 108.706 23.0438 107.931 23.0438V22.3463H117.225V20.0148H108.65V19.0408H120.539V23.2952H112.354V25.7837H120.829V26.7578H109.992C109.387 26.7578 109.034 26.4058 109.034 25.8466H109.04ZM110.855 16.8287C112.008 16.8287 112.512 15.9364 112.512 13.9317C112.512 11.9271 112.008 11.0536 110.855 11.0536C109.702 11.0536 109.198 11.9082 109.198 13.9317C109.198 15.9552 109.702 16.8287 110.855 16.8287ZM116.292 9.71502H120.52V18.1484H118.164C117.597 18.1484 117.401 17.9536 117.401 17.4069V11.2044C117.401 10.488 117.149 10.4063 116.292 10.4063V9.70874V9.71502Z" fill="#525252"/>
<path d="M128.313 11.9649V11.1857H123.247V10.2116H130.713C131.199 10.2116 131.356 10.5447 131.356 11.0851L131.337 11.7073H134.16C134.16 11.2234 134.16 10.9092 134.141 10.7521C134.084 10.419 133.731 10.3247 133.051 10.3247V9.6272H137.279V18.0983H134.922C134.355 18.0983 134.16 17.9035 134.16 17.3568V15.8611H130.65V14.9059H134.16V12.6499H131.274C130.884 15.7417 127.865 17.8029 123.014 18.2114L122.705 17.5704C126.366 16.854 128.319 14.9059 128.319 11.9524L128.313 11.9649ZM124.728 22.3087H133.965V20.015H125.389V19.0409H137.279V23.2576H129.094V25.7839H137.569V26.7579H126.731C126.126 26.7579 125.774 26.406 125.774 25.8467V23.8043C125.774 23.5341 125.736 23.3393 125.679 23.2199C125.522 23.0063 125.288 23.0251 124.721 23.0251V22.3087H124.728Z" fill="#525252"/>
<path d="M140.942 22.0763C141.799 20.2287 141.881 18.6137 141.881 15.5658V11.4434H139.525V10.3185H146.928V11.4434H144.824V15.2705C144.824 16.8038 144.861 18.0481 144.962 18.9844C145.139 20.8697 145.876 22.8304 147.728 24.2129L146.947 25.1052C145.41 24.2317 144.238 22.9309 143.4 21.1776C142.757 22.8681 141.138 24.7156 139.657 25.476L138.895 24.5459C139.827 23.8295 140.514 23.0126 140.942 22.0763ZM145.718 16.4016H148.157V11.2109C148.157 10.4128 148.062 10.3374 147.319 10.3374V9.63983H150.79V26.7831H148.686C148.333 26.7831 148.163 26.6072 148.163 26.2804V17.6333H145.725V16.4079L145.718 16.4016ZM151.08 9.63354H154.546V26.7768H152.46C152.088 26.7768 151.912 26.6009 151.912 26.249V11.2046C151.912 10.4254 151.836 10.3311 151.074 10.3311V9.63354H151.08Z" fill="#525252"/>
<path d="M159.655 12.7823V11.6762C159.655 11.073 159.302 11.0164 158.546 11.0164V10.3189H162.875V11.9716C162.875 15.0006 164.066 17.1435 166.636 18.6957L165.994 19.5692C164.009 18.8088 162.446 17.5268 161.318 15.761C160.518 17.6274 158.767 19.1984 156.505 20.1536L155.881 19.2613C158.357 17.7279 159.661 15.4908 159.661 12.7885L159.655 12.7823ZM157.607 20.8889H162.03V25.8094H170.7V26.7835H159.516C158.968 26.7835 158.716 26.5132 158.716 25.8722V22.3908C158.716 21.6744 158.464 21.5927 157.607 21.5927V20.8952V20.8889ZM166.183 9.71558H170.41V15.0383H172.458V16.0123H170.41V22.02H168.054C167.506 22.02 167.292 21.8252 167.292 21.2785V11.2112C167.292 10.4948 167.04 10.4131 166.183 10.4131V9.71558Z" fill="#525252"/>
<path d="M184.441 17.8972V14.554H182.431C182.292 17.0614 180.793 18.3245 177.888 18.3245C174.769 18.3245 173.213 16.9231 173.213 14.1266C173.213 11.3302 174.769 9.9288 177.888 9.9288C180.692 9.9288 182.173 11.0725 182.412 13.4291H184.441V11.1919C184.441 10.4315 184.107 10.3938 183.332 10.3938V9.69629H187.56V18.6387H185.203C184.655 18.6387 184.441 18.4439 184.441 17.8972ZM174.051 19.6442H178.279V22.051H184.435V20.9261C184.435 20.3229 184.082 20.2663 183.326 20.2663V19.5688H187.553V26.783H176.092C175.487 26.783 175.16 26.4311 175.16 25.809V21.0078C175.16 20.348 174.731 20.348 174.051 20.348V19.6505V19.6442ZM177.894 17.2185C178.38 17.2185 178.751 17.0802 179.003 16.7911C179.488 16.2444 179.551 15.4903 179.551 14.378L179.57 13.7182C179.57 12.1031 179.281 11.0537 177.894 11.0537C176.508 11.0537 176.237 12.0654 176.237 13.6176V14.4534C176.237 16.1439 176.489 17.2122 177.894 17.2122V17.2185ZM184.441 23.1822H178.285V25.6519H184.441V23.1822Z" fill="#525252"/>
<path d="M193.327 11.0349V10.6264C193.327 9.98544 192.917 9.96659 192.218 9.96659V9.26904H196.446V11.0349H199.64V12.1598H189.723V11.0349H193.327ZM201.184 18.4817L201.203 17.8784H198.531C197.832 18.733 196.502 19.1792 194.732 19.1792C191.909 19.1792 190.214 17.9915 190.214 15.9931C190.214 13.9948 191.909 12.7882 194.732 12.7882C196.194 12.7882 197.303 13.0773 198.065 13.6617H201.203V9.71522H204.322V19.2986H201.965C201.341 19.2986 201.184 19.0095 201.184 18.4817ZM190.794 20.3041H195.022V22.4596H201.177V21.5861C201.177 20.9828 200.825 20.9262 200.069 20.9262V20.2287H204.296V26.7768H192.835C192.23 26.7768 191.903 26.4249 191.903 25.8028V21.6615C191.903 21.0582 191.55 21.0016 190.794 21.0016V20.3041ZM194.732 18.2052C195.841 18.2052 196.231 17.6207 196.231 15.9868C196.231 14.353 195.841 13.7308 194.732 13.7308C193.623 13.7308 193.232 14.3718 193.232 16.0623C193.232 17.6396 193.623 18.1989 194.732 18.1989V18.2052ZM201.184 23.5907H195.028V25.6519H201.184V23.5907ZM199.155 15.9931C199.155 16.1691 199.136 16.4205 199.079 16.7535H201.203V14.7929H198.941C199.079 15.2013 199.155 15.6098 199.155 15.9994V15.9931Z" fill="#525252"/>
<path d="M206.777 23.3396H210.419V20.9076C208.548 20.4614 207.357 18.9846 207.357 17.0993C207.357 14.881 209.09 13.2911 211.881 13.2911C214.672 13.2911 216.304 14.7491 216.304 17.0993C216.304 18.9469 215.271 20.3483 213.538 20.8699V23.3396H217.476V24.4644H206.777V23.3396ZM210.495 11.519V10.9534C210.495 10.237 210.243 10.1553 209.386 10.1553V9.45776H213.771V11.519H216.789V12.6439H206.872V11.519H210.495ZM211.881 19.9587C212.795 19.9587 213.381 18.8338 213.381 17.0993C213.381 15.3649 212.813 14.416 211.881 14.416C210.948 14.416 210.381 15.4089 210.381 17.0993C210.381 18.7898 210.967 19.9587 211.881 19.9587ZM217.123 9.75312H221.275V26.8399H218.9C218.453 26.8399 218.22 26.6262 218.22 26.18V11.0979C218.22 10.4758 217.867 10.4381 217.13 10.4381V9.7594L217.123 9.75312Z" fill="#525252"/>
<path d="M6.91944 29.297C6.91944 27.1667 4.9851 25.4888 2.77353 25.9098C1.42516 26.1675 0.335125 27.2484 0.070492 28.5869C-0.370563 30.7989 1.31805 32.747 3.46031 32.747C5.36945 32.747 6.91944 31.2011 6.91944 29.297Z" fill="#ACACAC"/>
<path d="M6.91826 20.6688C6.91826 18.7647 5.36827 17.2188 3.45913 17.2188C1.54999 17.2188 0 18.7647 0 20.6688C0 22.5729 1.54999 24.1188 3.45913 24.1188C5.36827 24.1188 6.91826 22.5729 6.91826 20.6688Z" fill="#ACACAC"/>
<path d="M6.91826 12.0404C6.91826 10.13 5.36827 8.59033 3.45913 8.59033C1.54999 8.59033 0 10.13 0 12.0404C0 13.9508 1.54999 15.4904 3.45913 15.4904C5.36827 15.4904 6.91826 13.9445 6.91826 12.0404Z" fill="#ACACAC"/>
<path d="M15.5706 20.6688C15.5706 18.7647 14.0206 17.2188 12.1115 17.2188C10.2023 17.2188 8.65234 18.7647 8.65234 20.6688C8.65234 22.5729 10.2023 24.1188 12.1115 24.1188C14.0206 24.1188 15.5706 22.5729 15.5706 20.6688Z" fill="#ACACAC"/>
<path d="M15.5706 12.0406C15.5706 10.1302 14.0206 8.59058 12.1115 8.59058C10.2023 8.59058 8.65234 10.1365 8.65234 12.0406C8.65234 13.9447 10.2023 15.4906 12.1115 15.4906C14.0206 15.4906 15.5706 13.9447 15.5706 12.0406Z" fill="#ACACAC"/>
<path d="M15.5706 3.45631C15.5706 1.5522 14.0206 0 12.1115 0C10.2023 0 8.65234 1.54591 8.65234 3.45631C8.65234 5.3667 10.2023 6.90633 12.1115 6.90633C14.0206 6.90633 15.5706 5.36042 15.5706 3.45631Z" fill="#FDB913"/>
<path d="M24.221 20.6688C24.221 18.7647 22.671 17.2188 20.7619 17.2188C18.8527 17.2188 17.3027 18.7647 17.3027 20.6688C17.3027 22.5729 18.8527 24.1188 20.7619 24.1188C22.671 24.1188 24.221 22.5729 24.221 20.6688Z" fill="#ACACAC"/>
<path d="M24.221 12.0404C24.221 10.13 22.671 8.59033 20.7619 8.59033C18.8527 8.59033 17.3027 10.1362 17.3027 12.0404C17.3027 13.9445 18.8527 15.4904 20.7619 15.4904C22.671 15.4904 24.221 13.9445 24.221 12.0404Z" fill="#ACACAC"/>
<path d="M24.221 3.45631C24.221 1.5522 22.671 0 20.7619 0C18.8527 0 17.3027 1.54591 17.3027 3.45631C17.3027 5.3667 18.8527 6.90633 20.7619 6.90633C22.671 6.90633 24.221 5.36042 24.221 3.45631Z" fill="#FDB913"/>
<path d="M32.8714 29.2972C32.8714 27.3868 31.3214 25.8472 29.4123 25.8472C27.5031 25.8472 25.9531 27.3931 25.9531 29.2972C25.9531 31.2013 27.5031 32.7472 29.4123 32.7472C31.3214 32.7472 32.8714 31.2013 32.8714 29.2972Z" fill="#ACACAC"/>
<path d="M32.8714 20.6688C32.8714 18.7647 31.3214 17.2188 29.4123 17.2188C27.5031 17.2188 25.9531 18.7647 25.9531 20.6688C25.9531 22.5729 27.5031 24.1188 29.4123 24.1188C31.3214 24.1188 32.8714 22.5729 32.8714 20.6688Z" fill="#ACACAC"/>
<path d="M32.8714 12.0404C32.8714 10.13 31.3214 8.59033 29.4123 8.59033C27.5031 8.59033 25.9531 10.1362 25.9531 12.0404C25.9531 13.9445 27.5031 15.4904 29.4123 15.4904C31.3214 15.4904 32.8714 13.9445 32.8714 12.0404Z" fill="#ACACAC"/>
<path d="M27.3281 30.0385C27.3281 30.0385 27.3281 30.3967 27.7629 30.3967H28.2228V30.9434C28.2228 30.9434 28.2228 31.377 28.582 31.377C28.582 31.377 28.9348 31.377 28.9348 30.9434V30.3967H29.798V30.9434C29.798 30.9434 29.798 31.377 30.1572 31.377C30.1572 31.377 30.51 31.377 30.51 30.9434V30.3967H31.0645C31.0645 30.3967 31.4992 30.3967 31.4992 30.0385C31.4992 30.0385 31.4992 29.6866 31.0645 29.6866H30.51V28.8256H31.0645C31.0645 28.8256 31.4992 28.8256 31.4992 28.4737C31.4992 28.4737 31.4992 28.1155 31.0645 28.1155H30.51V27.6505C30.51 27.6505 30.51 27.2231 30.1572 27.2231C30.1572 27.2231 29.798 27.2231 29.798 27.6505V28.1155H28.9348V27.6505C28.9348 27.6505 28.9348 27.2231 28.582 27.2231C28.582 27.2231 28.2228 27.2231 28.2228 27.6505V28.1155H27.7629C27.7629 28.1155 27.3281 28.1155 27.3281 28.4737C27.3281 28.4737 27.3281 28.8256 27.7629 28.8256H28.2228V29.6866H27.7629C27.7629 29.6866 27.3281 29.6865 27.3281 30.0385ZM28.9348 29.6866V28.8256H29.798V29.6866H28.9348Z" fill="white"/>
<path d="M5.26766 28.2536C5.26766 28.2536 5.09123 27.9457 4.71319 28.1594L3.81848 28.681V27.6441C3.81848 27.6441 3.81848 27.2104 3.45933 27.2104C3.45933 27.2104 3.10649 27.2105 3.10649 27.6441V28.681L2.21178 28.1594C2.21178 28.1594 1.84003 27.9457 1.65731 28.2536C1.65731 28.2536 1.48088 28.5616 1.85263 28.7815L2.75364 29.2968L1.85263 29.8121C1.85263 29.8121 1.47458 30.0258 1.65731 30.3337C1.65731 30.3337 1.83373 30.6416 2.21178 30.4217L3.10649 29.9064V30.937C3.10649 30.937 3.10649 31.3706 3.45933 31.3706C3.45933 31.3706 3.81848 31.3706 3.81848 30.937V29.9064L4.71319 30.4217C4.71319 30.4217 5.08493 30.6416 5.26766 30.3337C5.26766 30.3337 5.45038 30.0258 5.07233 29.8121L4.17132 29.2968L5.07233 28.7815C5.07233 28.7815 5.44408 28.5678 5.26766 28.2536Z" fill="white"/>
<path d="M9.30451 32.3494V28.5312H9.87127V29.1278H9.92099C10.0005 28.9239 10.129 28.7657 10.3063 28.653C10.4836 28.5386 10.6966 28.4815 10.9451 28.4815C11.197 28.4815 11.4067 28.5386 11.574 28.653C11.7431 28.7657 11.8748 28.9239 11.9693 29.1278H12.0091C12.1068 28.9306 12.2535 28.774 12.449 28.658C12.6446 28.5403 12.8791 28.4815 13.1525 28.4815C13.4939 28.4815 13.7731 28.5884 13.9902 28.8021C14.2073 29.0143 14.3159 29.3449 14.3159 29.794V32.3494H13.7292V29.794C13.7292 29.5122 13.6522 29.3109 13.498 29.1899C13.3439 29.0689 13.1625 29.0085 12.9537 29.0085C12.6852 29.0085 12.4772 29.0897 12.3297 29.2521C12.1822 29.4128 12.1085 29.6166 12.1085 29.8636V32.3494H11.5119V29.7343C11.5119 29.5172 11.4415 29.3424 11.3006 29.2098C11.1597 29.0756 10.9783 29.0085 10.7562 29.0085C10.6038 29.0085 10.4612 29.0491 10.3287 29.1303C10.1977 29.2115 10.0917 29.3242 10.0105 29.4683C9.93093 29.6108 9.89116 29.7757 9.89116 29.963V32.3494H9.30451ZM15.3885 33.7812V28.5312H15.9553V29.1377H16.0249C16.0679 29.0714 16.1276 28.9869 16.2038 28.8842C16.2817 28.7798 16.3928 28.687 16.5369 28.6058C16.6828 28.5229 16.88 28.4815 17.1286 28.4815C17.45 28.4815 17.7334 28.5618 17.9787 28.7226C18.224 28.8833 18.4154 29.1112 18.5529 29.4062C18.6905 29.7012 18.7592 30.0492 18.7592 30.4502C18.7592 30.8546 18.6905 31.2051 18.5529 31.5017C18.4154 31.7967 18.2248 32.0254 17.9812 32.1878C17.7376 32.3485 17.4567 32.4289 17.1385 32.4289C16.8932 32.4289 16.6969 32.3883 16.5494 32.3071C16.4019 32.2242 16.2884 32.1306 16.2088 32.0262C16.1293 31.9202 16.0679 31.8323 16.0249 31.7627H15.9751V33.7812H15.3885ZM15.9652 30.4403C15.9652 30.7286 16.0075 30.983 16.092 31.2034C16.1765 31.4222 16.3 31.5937 16.4624 31.718C16.6248 31.8406 16.8236 31.9019 17.0589 31.9019C17.3042 31.9019 17.5089 31.8373 17.6729 31.708C17.8387 31.5771 17.9629 31.4014 18.0458 31.181C18.1303 30.959 18.1726 30.7121 18.1726 30.4403C18.1726 30.1718 18.1312 29.9299 18.0483 29.7144C17.9671 29.4973 17.8436 29.3258 17.6779 29.1999C17.5138 29.0723 17.3075 29.0085 17.0589 29.0085C16.8203 29.0085 16.6198 29.0689 16.4574 29.1899C16.295 29.3092 16.1723 29.4766 16.0895 29.692C16.0066 29.9058 15.9652 30.1552 15.9652 30.4403ZM19.6541 32.3494V28.5312H20.2408V32.3494H19.6541ZM19.9524 27.8948C19.8381 27.8948 19.7395 27.8559 19.6566 27.778C19.5754 27.7001 19.5348 27.6065 19.5348 27.4971C19.5348 27.3877 19.5754 27.2941 19.6566 27.2162C19.7395 27.1383 19.8381 27.0994 19.9524 27.0994C20.0668 27.0994 20.1645 27.1383 20.2457 27.2162C20.3286 27.2941 20.37 27.3877 20.37 27.4971C20.37 27.6065 20.3286 27.7001 20.2457 27.778C20.1645 27.8559 20.0668 27.8948 19.9524 27.8948ZM22.4388 32.4389C22.1969 32.4389 21.9773 32.3933 21.7801 32.3021C21.5829 32.2093 21.4263 32.0759 21.3103 31.9019C21.1943 31.7263 21.1363 31.5141 21.1363 31.2656C21.1363 31.0468 21.1794 30.8695 21.2655 30.7336C21.3517 30.5961 21.4669 30.4883 21.6111 30.4104C21.7552 30.3326 21.9143 30.2746 22.0883 30.2364C22.264 30.1967 22.4405 30.1652 22.6178 30.142C22.8498 30.1121 23.0379 30.0898 23.1821 30.0749C23.3279 30.0583 23.434 30.0309 23.5003 29.9928C23.5682 29.9547 23.6022 29.8884 23.6022 29.794V29.7741C23.6022 29.5288 23.5351 29.3382 23.4008 29.2023C23.2683 29.0665 23.0669 28.9985 22.7968 28.9985C22.5167 28.9985 22.2971 29.0598 22.1381 29.1825C21.979 29.3051 21.8671 29.436 21.8025 29.5752L21.2456 29.3764C21.3451 29.1443 21.4777 28.9637 21.6434 28.8345C21.8108 28.7035 21.993 28.6124 22.1903 28.561C22.3891 28.508 22.5847 28.4815 22.7769 28.4815C22.8995 28.4815 23.0404 28.4964 23.1995 28.5262C23.3602 28.5544 23.5152 28.6132 23.6643 28.7027C23.8151 28.7922 23.9403 28.9273 24.0397 29.1079C24.1391 29.2885 24.1888 29.5305 24.1888 29.8337V32.3494H23.6022V31.8323H23.5724C23.5326 31.9152 23.4663 32.0038 23.3735 32.0983C23.2807 32.1928 23.1572 32.2731 23.0031 32.3394C22.849 32.4057 22.6609 32.4389 22.4388 32.4389ZM22.5283 31.9119C22.7603 31.9119 22.9559 31.8663 23.115 31.7751C23.2757 31.684 23.3967 31.5663 23.4779 31.4222C23.5608 31.278 23.6022 31.1264 23.6022 30.9673V30.4303C23.5773 30.4602 23.5226 30.4875 23.4381 30.5124C23.3553 30.5356 23.2591 30.5563 23.1498 30.5745C23.0421 30.5911 22.9368 30.606 22.8341 30.6193C22.733 30.6309 22.651 30.6408 22.588 30.6491C22.4355 30.669 22.293 30.7013 22.1604 30.746C22.0295 30.7891 21.9234 30.8546 21.8422 30.9424C21.7627 31.0286 21.7229 31.1462 21.7229 31.2954C21.7229 31.4992 21.7983 31.6533 21.9491 31.7577C22.1016 31.8605 22.2947 31.9119 22.5283 31.9119Z" fill="#7C8081"/>
</g>
<defs>
<clipPath id="clip0_107_1531">
<rect width="221.714" height="40" fill="white"/>
</clipPath>
</defs>
</svg>
